<?xml version="1.0" encoding="utf-8"?>
<!-- Generator: Adobe Illustrator 24.0.2, SVG Export Plug-In . SVG Version: 6.00 Build 0)  -->
<svg version="1.1" id="Layer_1" xmlns="http://www.w3.org/2000/svg" xmlns:xlink="http://www.w3.org/1999/xlink" x="0px" y="0px"
	 viewBox="0 0 102 101" style="enable-background:new 0 0 102 101;" xml:space="preserve">
<style type="text/css">
	.st0{fill:#0020F6;}
</style>
<g>
	<path class="st0" d="M5.66,98.28h48.2c0.5-0.07,1.09-0.14,1.69-0.21c1.25-0.15,2.54-0.3,3.78-0.54
		c15.05-2.89,26.44-11.17,33.85-24.61c3.13-5.68,4.96-12.01,5.44-18.81c0.02-0.23,0.07-0.45,0.12-0.68l0.04-0.17v-5.55
		c-0.08-0.58-0.15-1.16-0.21-1.74c-0.15-1.25-0.3-2.53-0.54-3.77C95.14,27.12,86.86,15.72,73.42,8.33
		c-7.63-4.19-15.83-6.05-24.38-5.53C31.12,3.91,17.6,12.44,8.82,28.17C5.12,34.81,3.24,42.46,3.25,50.9l0,4.51
		C3.26,68.15,3.27,81.34,3.22,94.3C3.22,96.46,3.95,97.65,5.66,98.28z M18.8,24.09c7.06-8.52,16.11-13.53,26.89-14.91
		c10.29-1.31,19.75,0.86,28.13,6.46c10.65,7.12,16.88,17.08,18.51,29.59c1.33,10.25-0.85,19.71-6.49,28.12
		c-7.09,10.58-17.02,16.79-29.51,18.45c-1.81,0.24-3.81,0.36-6.14,0.37c-6.47,0.02-12.95,0.02-19.43,0.02c-3.24,0-6.47,0-9.71,0
		l-11.72,0l0-13.75c0-9.09,0.01-18.19-0.01-27.28C9.29,40.82,12.48,31.71,18.8,24.09z"/>
	<path class="st0" d="M31.7,54.54c1.1,0.03,2.09-0.37,2.89-1.13c0.79-0.76,1.24-1.77,1.26-2.84c0.04-2.16-1.76-4.04-3.93-4.11
		c-1.06-0.02-2.09,0.37-2.89,1.13c-0.79,0.76-1.24,1.77-1.26,2.84C27.73,52.6,29.53,54.48,31.7,54.54z"/>
	<path class="st0" d="M51.01,46.46c0,0-0.01,0-0.01,0c-1.07,0-2.08,0.43-2.85,1.2c-0.77,0.78-1.2,1.8-1.19,2.87
		c0.02,2.17,1.86,4,4.03,4.01c1.11,0.01,2.09-0.42,2.86-1.2s1.2-1.8,1.19-2.87C55.02,48.3,53.18,46.47,51.01,46.46z"/>
	<path class="st0" d="M70.3,46.46c-0.04,0-0.08,0-0.11,0c-2.15,0-3.95,1.72-4.03,3.89c-0.04,1.07,0.35,2.09,1.1,2.89
		c0.75,0.8,1.76,1.26,2.83,1.29c2.24,0.06,4.06-1.68,4.14-3.89c0.04-1.07-0.35-2.09-1.1-2.89C72.38,46.95,71.38,46.49,70.3,46.46z"
		/>
</g>
</svg>
