<?xml version="1.0" encoding="utf-8"?>
<!-- Generator: Adobe Illustrator 24.0.2, SVG Export Plug-In . SVG Version: 6.00 Build 0)  -->
<svg version="1.1" id="Layer_1" xmlns="http://www.w3.org/2000/svg" xmlns:xlink="http://www.w3.org/1999/xlink" x="0px" y="0px"
	 viewBox="0 0 102 101" style="enable-background:new 0 0 102 101;" xml:space="preserve">
<style type="text/css">
	.st0{fill:#0020F6;}
</style>
<g>
	<path class="st0" d="M2.1,85.66c0.09-0.33,0.18-0.66,0.26-1c0.62-2.76,1.99-5.05,4.17-6.88c4.86-4.06,9.7-8.15,14.54-12.23
		c0.17-0.14,0.33-0.3,0.53-0.48c-6.4-11.48-7.64-23.47-3.22-35.86c3.35-9.39,9.47-16.67,18.05-21.73
		C53.86-2.78,75.8,0.64,89.16,15.58c13.33,14.9,14.34,37.08,2.51,53.08C79.47,85.18,55.91,91.22,36.44,79.9
		c-0.75,0.88-1.51,1.76-2.26,2.66c-3.42,4.06-6.87,8.11-10.26,12.21c-2.04,2.46-4.57,4-7.73,4.49c-0.12,0.02-0.22,0.1-0.33,0.16
		c-1.02,0-2.04,0-3.06,0c-0.21-0.06-0.42-0.14-0.63-0.18c-4.89-0.98-8.08-3.86-9.6-8.59c-0.2-0.63-0.31-1.28-0.47-1.92
		C2.1,87.69,2.1,86.68,2.1,85.66z M57.89,79.94c20.03-0.01,36.32-16.33,36.29-36.35C94.14,23.6,77.87,7.35,57.89,7.33
		C37.87,7.32,21.57,23.61,21.57,43.64C21.57,63.69,37.85,79.96,57.89,79.94z M31.35,77.03c-2.32-2.34-4.55-4.58-6.84-6.88
		c-2.53,2.13-5.4,4.55-8.23,6.93c2.73,2.73,5.43,5.42,8.16,8.15C26.82,82.41,29.23,79.54,31.35,77.03z M11.66,80.95
		c-0.65,0.57-1.4,1.15-2.06,1.82c-1.97,2.02-2.36,5.14-0.99,7.58c1.45,2.56,4.29,3.8,7.12,3.19c2.24-0.49,3.55-2.09,4.8-3.71
		C17.59,86.88,14.65,83.94,11.66,80.95z"/>
	<path class="st0" d="M88.66,43.9c0,6.46-5.26,11.74-11.71,11.75c-6.46,0.01-11.81-5.35-11.78-11.81
		c0.03-6.44,5.34-11.7,11.79-11.68C83.43,32.17,88.67,37.43,88.66,43.9z M83.5,43.92c0.01-3.63-2.89-6.58-6.5-6.6
		c-3.66-0.02-6.65,2.92-6.67,6.55c-0.02,3.61,3,6.63,6.62,6.62C80.56,50.48,83.5,47.53,83.5,43.92z"/>
	<path class="st0" d="M35.26,32.13c3.06,0.1,5.29,0.94,7.25,2.47c1.18,0.91,1.4,2.42,0.59,3.57c-0.8,1.13-2.31,1.42-3.57,0.59
		c-1.13-0.74-2.29-1.39-3.68-1.42c-0.41-0.01-0.82,0.06-1.22,0.15c-0.63,0.13-1.12,0.54-1.01,1.17c0.09,0.48,0.43,1.12,0.83,1.31
		c1.49,0.71,3.09,1.18,4.56,1.92c1.18,0.59,2.39,1.28,3.29,2.21c3.25,3.36,1.9,8.75-2.62,10.78c-3.8,1.7-9.31,0.42-11.96-2.78
		c-0.91-1.1-0.88-2.59,0.08-3.55c0.96-0.96,2.46-1.04,3.54-0.05c1.14,1.05,2.39,1.78,3.94,1.96c1.11,0.13,2.17-0.01,3.03-0.81
		c0.86-0.79,0.85-1.62-0.07-2.33c-0.45-0.34-0.97-0.6-1.49-0.82c-1.55-0.65-3.13-1.25-4.68-1.9c-2.67-1.13-4.04-3.15-3.99-5.8
		c0.06-2.67,1.79-5.15,4.37-6.03C33.52,32.39,34.67,32.26,35.26,32.13z"/>
	<path class="st0" d="M53.73,46.49c0,1.33,0,2.55,0,3.91c0.79,0,1.54-0.01,2.29,0c1.05,0.01,2.11-0.03,3.14,0.08
		c1.32,0.14,2.21,1.28,2.16,2.6c-0.04,1.27-0.97,2.38-2.25,2.41c-2.77,0.07-5.54,0.08-8.3-0.01c-1.38-0.04-2.24-1.19-2.24-2.72
		c-0.01-5.92,0-11.84,0-17.76c0-0.06,0-0.13,0-0.19c0.07-1.41,0.96-2.49,2.36-2.53c2.7-0.08,5.41-0.09,8.11,0
		c1.43,0.05,2.38,1.27,2.33,2.64c-0.06,1.34-1.05,2.37-2.46,2.42c-1.68,0.06-3.36,0.01-5.11,0.01c0,1.35,0,2.6,0,3.96
		c1.37,0,2.73-0.01,4.09,0c1.78,0.01,2.92,1.01,2.92,2.56c0,1.55-1.14,2.58-2.91,2.59C56.51,46.5,55.18,46.49,53.73,46.49z"/>
</g>
</svg>
