<?xml version="1.0" encoding="utf-8"?>
<!-- Generator: Adobe Illustrator 24.0.2, SVG Export Plug-In . SVG Version: 6.00 Build 0)  -->
<svg version="1.1" id="Layer_1" xmlns="http://www.w3.org/2000/svg" xmlns:xlink="http://www.w3.org/1999/xlink" x="0px" y="0px"
	 viewBox="0 0 102 101" style="enable-background:new 0 0 102 101;" xml:space="preserve">
<style type="text/css">
	.st0{fill:#0020F6;}
</style>
<g>
	<path class="st0" d="M94.53,47.24l0.85-2.02c1.21-2.89,2.46-5.88,3.64-8.83c0.11-0.26,0.12-0.62,0.13-1
		c-0.41-0.03-0.8-0.05-1.11,0.03c-1,0.24-2.01,0.57-2.98,0.89c-0.41,0.13-0.81,0.26-1.21,0.39l-0.48,0.15l-0.39-0.47
		c-0.07-0.07-0.16-0.18-0.23-0.35c-0.11-0.28-0.21-0.57-0.32-0.86l-0.08-0.22c-2.23-6.19-5.54-11.57-9.82-16
		c-9-9.3-20.07-14.16-32.89-14.44C42.74,4.34,36,5.79,29.57,8.77C22.42,12.09,16.43,17,11.78,23.35c-4.2,5.74-6.95,12.2-8.2,19.21
		c-0.22,1.25-0.38,2.54-0.53,3.78c-0.07,0.57-0.14,1.14-0.21,1.71v5.03l0.04,0.17c0.06,0.23,0.11,0.46,0.13,0.69
		c0.59,7.67,2.88,14.7,6.79,20.9c1.43,2.26,3.12,4.38,4.74,6.36c0.51,0.62,1.2,1.01,1.95,1.08c0.78,0.08,1.57-0.17,2.21-0.7
		c1.28-1.05,1.47-2.82,0.44-4.2c-0.2-0.27-0.42-0.53-0.63-0.79l-0.37-0.45c-7.73-9.58-10.62-20.51-8.59-32.47
		c1.72-10.08,6.7-18.38,14.81-24.66c9.45-7.32,20.14-9.95,31.75-7.83c11.77,2.16,20.98,8.56,27.38,19.03
		c1.47,2.41,2.62,4.96,3.51,7.8l0.22,0.72l-0.72,0.22c-0.44,0.14-0.88,0.27-1.31,0.4c-1.07,0.32-2.07,0.62-3.06,0.99
		c-0.27,0.1-0.55,0.33-0.85,0.57c0.21,0.29,0.41,0.55,0.63,0.7c3.02,2.01,6.13,4.01,9.13,5.95l0.8,0.52
		c0.67,0.43,1.21,0.59,1.59,0.47C93.85,48.44,94.21,47.99,94.53,47.24z"/>
	<path class="st0" d="M34.95,58.71l-0.18-0.48c-0.23-0.6-0.23-0.6,3.19-3.03c0.94-0.67,1.9-1.35,2.49-1.79
		c1.84-1.36,3.73-2.77,5.1-4.67c1.56-2.16,1.96-4.7,1.1-6.95c-0.85-2.23-2.8-3.83-5.36-4.4c-2.45-0.54-5.01-0.61-7.62-0.2
		c-3.93,0.62-6.15,2.76-6.82,6.49c2.06,0.01,4.11,0.15,6.17,0.25c0.11-0.35,0.22-0.69,0.38-1.03c0.45-0.98,1.27-1.71,2.3-2.06
		c1.08-0.36,2.28-0.26,3.3,0.28c0.97,0.51,1.64,1.34,1.91,2.34c0.26,0.99,0.08,2.05-0.52,2.98c-0.65,1.02-1.52,2-2.59,2.92
		c-1.05,0.91-2.15,1.78-3.21,2.63c-1.07,0.85-2.18,1.74-3.23,2.65c-2.89,2.5-4.58,5.27-5.16,8.45h21.02v-4.39H34.95z"/>
	<path class="st0" d="M73.48,53.7h-3.39V36.94l-0.79,0c-1.58,0-3.12-0.01-4.66,0.03c0.03,0-0.11,0.1-0.27,0.28
		c-4.3,5.09-8.59,10.2-12.87,15.31c-0.21,0.25-0.25,0.35-0.26,0.38c-0.02,1.43-0.02,2.89-0.02,4.41l0,0.74h13.81v5.03h5.07v-5.06
		h3.37V53.7z M64.96,53.68h-9.57l9.57-11.27V53.68z"/>
	<path class="st0" d="M60.19,89.19c-0.18,0-0.36,0.02-0.54,0.05c-1.15,0.22-2.07,0.44-2.91,0.69c-1.28,0.38-2.15,1.52-2.17,2.84
		c-0.01,0.86,0.36,1.69,1.01,2.29c0.6,0.55,1.35,0.8,2.1,0.72c1.2-0.13,2.42-0.41,3.64-0.84c1.41-0.5,2.16-2.08,1.71-3.62
		C62.65,90.05,61.47,89.19,60.19,89.19z"/>
	<path class="st0" d="M74.96,83.46c-0.47-0.29-0.98-0.43-1.49-0.43c-0.44,0-0.88,0.11-1.3,0.32c-0.96,0.49-1.92,1.11-2.84,1.83
		c-0.98,0.77-1.32,1.83-0.97,3.06c0.34,1.21,1.11,1.92,2.34,2.16c1.84,0.37,5.29-1.9,5.69-3.71c0.04-0.16,0.04-0.32,0.05-0.45
		l0.01-0.12C76.43,85.01,75.87,84.02,74.96,83.46z"/>
	<path class="st0" d="M86.58,64.58c-0.32,1.31,0.47,2.77,1.8,3.33c1.36,0.58,2.96,0.11,3.56-1.05c0.51-0.97,0.85-2.04,1.13-2.91
		c0.09-0.29,0.18-0.55,0.26-0.79c-0.04-1.87-0.91-3.16-2.33-3.47c-0.22-0.05-0.44-0.07-0.66-0.07c-1.16,0-2.23,0.66-2.67,1.71
		C87.21,62.41,86.85,63.49,86.58,64.58z"/>
	<path class="st0" d="M83.94,72.64c-0.2,0.08-0.41,0.16-0.62,0.23c-0.5,0.18-0.97,0.35-1.23,0.61c-1.05,1.07-1.9,2.18-2.52,3.31
		c-0.64,1.15-0.18,2.72,1.04,3.58c1.21,0.84,2.78,0.72,3.74-0.31c0.97-1.04,1.69-1.98,2.2-2.88c0.5-0.88,0.5-1.9,0.01-2.8
		C86.04,73.4,85.07,72.76,83.94,72.64z"/>
	<path class="st0" d="M31.13,92.9c1.58-0.04,2.75-0.84,3.13-2.14c0.39-1.32-0.14-2.71-1.28-3.37c-0.95-0.56-1.96-1.04-2.98-1.44
		c-0.33-0.13-0.68-0.19-1.02-0.19c-0.93,0-1.83,0.46-2.41,1.27c-0.81,1.16-0.78,2.66,0.08,3.56C27.69,91.68,29.15,92.43,31.13,92.9z
		"/>
	<path class="st0" d="M42.63,96.23c0.83,0.15,1.73,0.24,2.74,0.27c1.73,0.08,3.04-1.07,3.19-2.74c0.14-1.6-0.97-2.95-2.65-3.22
		c-0.61-0.1-1.22-0.15-1.69-0.2l-0.45-0.04c-0.13-0.01-0.26-0.01-0.38-0.01c-1.91,0-3.2,0.92-3.4,2.46
		C39.76,94.51,40.82,95.91,42.63,96.23z"/>
</g>
</svg>
