<?xml version="1.0" encoding="utf-8"?>
<!-- Generator: Adobe Illustrator 24.0.2, SVG Export Plug-In . SVG Version: 6.00 Build 0)  -->
<svg version="1.1" id="Layer_1" xmlns="http://www.w3.org/2000/svg" xmlns:xlink="http://www.w3.org/1999/xlink" x="0px" y="0px"
	 viewBox="0 0 102 101" style="enable-background:new 0 0 102 101;" xml:space="preserve">
<style type="text/css">
	.st0{fill:#0020F6;}
</style>
<g>
	<path class="st0" d="M42.89,3.99c-10.65,1.89-19.74,6.94-27.02,15.02C9.13,26.48,5.14,35.48,4,45.76l-0.23,2l0,5.53
		c0.07,0.5,0.14,1.07,0.21,1.64c0.15,1.23,0.3,2.49,0.52,3.68c2.63,14.08,10.19,25.01,22.46,32.5c7.91,4.82,16.66,7.03,26.03,6.58
		c13.32-0.65,24.58-6.04,33.48-16.04C93.22,74.08,97.1,65.2,98,55.27c1.36-14.92-3.33-27.86-13.94-38.45
		C77.13,9.89,68.54,5.53,58.52,3.86c-1.07-0.18-2.18-0.31-3.26-0.43c-0.51-0.06-1.01-0.11-1.51-0.18l-5.52,0
		c-0.5,0.07-1.07,0.14-1.64,0.21C45.44,3.61,44.12,3.77,42.89,3.99z M50.9,9.18l0.18,0c22.76,0.1,41.27,18.64,41.27,41.33
		c0,11.03-4.35,21.43-12.24,29.28c-7.8,7.76-18.09,12.04-28.97,12.04h-0.18C28.2,91.73,9.69,73.19,9.69,50.5
		c0-11.03,4.35-21.43,12.24-29.28C29.73,13.45,40.02,9.18,50.9,9.18z"/>
	<path class="st0" d="M70.37,39.08c-0.2-0.26-0.45-0.52-0.7-0.77c-5.33-5.34-10.67-10.67-16-16.01c-0.9-0.9-1.74-1.34-2.56-1.34
		c0,0,0,0,0,0c-0.01,0-0.03,0.01-0.04,0.01c-0.01,0-0.03-0.01-0.04-0.01c0,0,0,0,0,0c-0.82,0-1.65,0.44-2.56,1.34
		c-5.34,5.33-10.67,10.67-16,16.01c-0.25,0.24-0.5,0.51-0.7,0.77c-0.83,1.08-0.79,2.57,0.08,3.61c0.55,0.66,1.28,1.04,2.06,1.08
		c0.87,0.06,1.78-0.33,2.55-1.09c1.84-1.82,3.66-3.64,5.48-5.47l2.78-2.79c0.17-0.17,0.34-0.33,0.57-0.52l2.8-2.54l0,27.14
		c0,0.44,0,0.83,0.03,1.2c0.07,0.77,0.47,1.49,1.11,1.98c0.54,0.42,1.19,0.62,1.84,0.6c0.65,0.02,1.3-0.19,1.84-0.6
		c0.64-0.49,1.04-1.22,1.11-1.98c0.03-0.38,0.03-0.76,0.03-1.2l0-27.14l2.8,2.54c0.22,0.2,0.4,0.36,0.57,0.52l2.78,2.79
		c1.82,1.83,3.65,3.66,5.48,5.47c0.76,0.75,1.67,1.15,2.55,1.09c0.78-0.04,1.51-0.42,2.06-1.08C71.16,41.65,71.19,40.16,70.37,39.08
		z"/>
	<path class="st0" d="M62.75,76.5c-0.3-1.5-1.46-2.37-3.19-2.38c-6.37-0.03-11.66-0.05-17.08,0.03c-0.7,0.01-1.54,0.29-2.21,0.72
		c-0.95,0.62-1.31,1.88-0.91,3.13c0.4,1.23,1.5,2.01,2.88,2.03c2.01,0.03,4.03,0.02,6.04,0.01l2.68,0l2.26,0
		c2.1,0.01,4.15,0.01,6.17-0.02c0.68-0.01,1.29-0.12,1.75-0.32C62.36,79.2,63.03,77.85,62.75,76.5z"/>
</g>
</svg>
