<?xml version="1.0" encoding="utf-8"?>
<!-- Generator: Adobe Illustrator 24.0.2, SVG Export Plug-In . SVG Version: 6.00 Build 0)  -->
<svg version="1.1" id="Layer_1" xmlns="http://www.w3.org/2000/svg" xmlns:xlink="http://www.w3.org/1999/xlink" x="0px" y="0px"
	 viewBox="0 0 102 102" style="enable-background:new 0 0 102 102;" xml:space="preserve">
<style type="text/css">
	.st0{fill:#0020F6;}
</style>
<g>
	<path class="st0" d="M48,50.4c0,13.8,0,27.6,0,41.5c0,2.8-1.1,3.8-3.9,3.9c-7.7,0-15.4,0-23.1,0c-7.7,0-13.8-5.1-15.1-12.6
		c-0.2-1-0.2-2-0.2-3c0-19.8,0-39.7,0-59.5c0-7.9,5-14,12.6-15.4C19.1,5,20.1,5,21,5c7.7,0,15.5,0,23.2,0C46.9,5,48,6.1,48,8.7
		C48,22.6,48,36.5,48,50.4z M41.8,89.6c0-26.2,0-52.4,0-78.5c-0.3,0-0.5,0-0.7,0c-6.8,0-13.6,0-20.4,0c-0.5,0-0.9,0-1.4,0.1
		c-4.7,0.8-7.7,4.4-7.7,9.3c0,19.9,0,39.8,0,59.7c0,0.7,0,1.4,0.2,2.1c0.9,4.3,4.4,7.3,8.8,7.3c6.8,0,13.7,0,20.5,0
		C41.4,89.6,41.6,89.6,41.8,89.6z"/>
	<path class="st0" d="M75.1,47.3c-5.8,0-11.7,0-17.5,0c-2.4,0-3.6-1.2-3.6-3.5c0-11.8,0-23.6,0-35.4C54,6.2,55.2,5,57.4,5
		c7.9,0,15.8,0,23.7,0c8.5,0,15,6.4,15.2,15c0.1,8,0,16.1,0,24.1c0,2.1-1.3,3.3-3.4,3.3C87,47.4,81,47.3,75.1,47.3z M60.1,11.1
		c0,10.1,0,20.1,0,30.1c10.1,0,20.1,0,30.1,0c0-0.3,0-0.5,0-0.7c0-6.7,0-13.5,0-20.2c0-0.6,0-1.1-0.1-1.7c-0.8-4.4-4.4-7.4-8.9-7.5
		c-6.8,0-13.6,0-20.4,0C60.6,11.1,60.4,11.1,60.1,11.1z"/>
	<path class="st0" d="M54,74.6c0-5.9,0-11.8,0-17.6c0-2.4,1.2-3.5,3.6-3.5c11.8,0,23.5,0,35.3,0c2.3,0,3.5,1.2,3.5,3.5
		c0,7.8,0,15.7,0,23.5c-0.1,8.8-6.7,15.3-15.5,15.3c-7.7,0-15.5,0-23.2,0c-2.6,0-3.7-1.1-3.7-3.7C54,86.2,54,80.4,54,74.6z
		 M60.1,89.6c0.4,0,0.7,0,1,0c6.5,0,13.1,0,19.6,0c5.7,0,9.5-3.8,9.5-9.5c0-6.5,0-13.1,0-19.6c0-0.3,0-0.6,0-1
		c-10.1,0-20.1,0-30.1,0C60.1,69.6,60.1,79.5,60.1,89.6z"/>
</g>
</svg>
